<svg width="101" height="65" viewBox="0 0 101 65" fill="none" xmlns="http://www.w3.org/2000/svg">
<g clip-path="url(#clip0_202_186)">
<path d="M99.3457 28.0948L83.3344 40.555C82.5496 41.1607 81.5878 41.4905 80.5953 41.4905H71.4855C70.3699 41.4905 69.3004 40.854 69.3004 40.854L85.6272 28.0948C87.8662 26.3542 87.8354 22.965 85.5734 21.2628L70.4084 9.86842C69.8928 9.47736 69.2619 9.27033 68.6233 9.27033H34.1693C33.6076 9.27033 33.1614 8.81793 33.1614 8.26585C33.1614 8.08182 33.3153 7.92847 33.4999 7.92847H80.2721C81.0954 7.92847 81.9033 8.19684 82.565 8.69525L83.3344 9.27033L99.2919 21.2628C101.562 22.965 101.585 26.3542 99.3457 28.0948Z" fill="#DAE024"/>
<path d="M66.7231 21.8532C64.2379 21.5388 62.1451 23.6321 62.4605 26.1088C62.676 27.7957 64.0455 29.1606 65.7382 29.3753C68.2234 29.682 70.3162 27.5963 69.993 25.1196C69.7776 23.4327 68.408 22.0679 66.7154 21.8608L66.7231 21.8532ZM65.7228 28.1944C64.6918 27.9951 63.8609 27.1746 63.6685 26.1471C63.3146 24.3068 64.8996 22.7196 66.7538 23.0723C67.7848 23.264 68.6235 24.0998 68.8158 25.1273C69.1621 26.9676 67.5694 28.5471 65.7305 28.2021L65.7228 28.1944Z" fill="#DAE024"/>
<path d="M29.1913 28.9689C29.1605 28.8615 29.1375 28.7542 29.1221 28.6392C29.1221 28.6545 29.1298 28.6775 29.1375 28.7005C29.1375 28.7158 29.1375 28.7235 29.1375 28.7388C29.1375 28.7542 29.1375 28.7772 29.1452 28.7925C29.1452 28.8002 29.1452 28.8155 29.1452 28.8232C29.1528 28.8692 29.1605 28.9152 29.1759 28.9689H29.1913Z" fill="#B9437C"/>
<path d="M29.1375 28.6775C29.1375 28.6775 29.1375 28.7005 29.1375 28.7082C29.1375 28.7235 29.1375 28.7312 29.1375 28.7465C29.1375 28.7465 29.1298 28.7005 29.1221 28.6775H29.1375ZM29.2298 29.1146C29.2144 29.0685 29.2067 29.0225 29.1913 28.9765C29.199 29.0302 29.2144 29.0839 29.2298 29.1376C29.2298 29.1376 29.2298 29.1222 29.2298 29.1146ZM31.5457 32.312C31.5919 32.3427 31.638 32.3734 31.6842 32.404C31.7073 32.4194 31.7304 32.4347 31.7534 32.4424C31.6842 32.404 31.6149 32.358 31.5457 32.312ZM31.1456 32.0283C31.1456 32.0283 31.1918 32.0667 31.2149 32.082C31.2149 32.082 31.2226 32.082 31.2302 32.082C31.1995 32.0667 31.1764 32.0437 31.1456 32.0207V32.0283ZM29.1452 28.6775C29.1452 28.6775 29.1452 28.7005 29.1452 28.7082C29.1452 28.7235 29.1452 28.7312 29.1452 28.7465C29.1452 28.7465 29.1375 28.7005 29.1298 28.6775H29.1452Z" fill="#B9437C"/>
<path d="M29.2913 29.3601C29.2759 29.291 29.2528 29.2297 29.2374 29.1607C29.2374 29.153 29.2374 29.1454 29.2374 29.13C29.2221 29.0763 29.2067 29.0227 29.199 28.969C29.2144 29.015 29.2221 29.061 29.2374 29.107C29.2528 29.1914 29.2759 29.268 29.3067 29.3524L29.2913 29.3601Z" fill="#B9437C"/>
<path d="M29.1913 28.9689C29.1605 28.8615 29.1375 28.7542 29.1221 28.6392C29.1221 28.6545 29.1298 28.6775 29.1375 28.7005C29.1375 28.7158 29.1375 28.7235 29.1375 28.7388C29.1375 28.7388 29.1375 28.7695 29.1375 28.7849C29.1375 28.7925 29.1375 28.8079 29.1375 28.8155C29.1452 28.8615 29.1528 28.9075 29.1682 28.9612L29.1913 28.9689Z" fill="#B9437C"/>
<path d="M31.3764 32.2047C31.3764 32.2047 31.3225 32.1664 31.2917 32.1511C31.2609 32.1357 31.2379 32.1127 31.2071 32.0897C31.1686 32.059 31.1378 32.036 31.0994 32.0054C31.1148 32.013 31.1224 32.0207 31.1378 32.0284C31.1609 32.0514 31.184 32.0667 31.2071 32.082C31.2071 32.082 31.2148 32.082 31.2225 32.082C31.2763 32.1204 31.3302 32.1587 31.384 32.1971L31.3764 32.2047Z" fill="#B9437C"/>
<path d="M67.8539 18.0808C67.2691 16.9153 66.2381 15.4584 64.1838 14.7299C62.1295 14.0015 61.0292 14.3465 59.2442 15.1747C57.4592 16.0105 54.9971 18.5025 53.9507 21.4009C52.9043 24.2994 52.4657 26.5307 53.1197 30.7173C53.1197 30.7173 52.2811 31.3921 50.7654 32.3275C49.2419 33.263 48.7418 33.5007 48.7418 33.5007C48.7418 33.5007 48.0109 33.8841 47.4877 33.9608C47.3954 33.9761 47.2953 33.9838 47.1876 33.9761C46.6798 33.9531 46.0566 33.6157 45.9489 31.9365C45.8335 29.9199 46.0181 18.5868 46.0181 18.5868L42.0326 20.3121C42.0326 20.3121 41.7479 20.1281 41.2093 19.9057C40.7092 19.6987 39.9937 19.461 39.0781 19.3076C37.1699 18.9932 33.9307 19.2539 31.2301 20.4424C28.5295 21.631 26.1828 23.2259 24.3747 24.9128C22.5589 26.6074 20.7739 28.3556 20.3584 28.9767L20.0583 29.3218L21.2278 30.1499L24.0285 27.5582C24.0285 27.5582 23.8284 28.4093 23.7746 29.3984C23.413 29.7665 22.405 30.7787 21.7664 31.2924C20.9739 31.9288 19.7967 33.0177 18.0348 33.7231C16.0113 34.5205 14.8033 33.8688 14.4648 31.6298V30.3416L14.5109 16.8079H16.1498L22.6051 12.1996C23.0513 11.8238 23.8746 11.2181 24.2131 10.781C24.3747 10.5663 24.644 9.95289 24.644 9.24745C24.644 9.1631 24.644 9.07109 24.6286 8.97908C24.6286 8.73371 24.4055 8.58035 24.167 8.58035C24.0823 8.58035 23.9977 8.59569 23.9208 8.63402C23.6284 8.72604 23.2822 8.88706 23.0898 9.00208L14.5186 14.5152L14.5571 2.88317C14.5571 2.72981 14.5032 2.57646 14.4109 2.46144L12.5335 0.107422C12.4258 -0.0305989 12.2181 -0.0305989 12.1104 0.107422L10.2715 2.4461C10.1484 2.59946 10.0868 2.78349 10.0868 2.97518V16.3248C9.51747 15.9031 8.73268 15.9031 8.17101 16.3478L0.646216 22.1984C0.253819 22.9192 0.176878 23.1415 0.0691615 23.5863C-0.12319 24.123 0.107632 24.3377 0.36923 24.2687H0.384618C0.769322 24.2687 1.71569 23.87 1.99268 23.6859L10.0868 18.3108V33.194C10.0868 34.6202 10.8024 35.3563 11.618 35.8547C12.4412 36.3608 13.9185 36.3838 16.8038 35.6937C19.5121 35.0496 21.451 33.9148 23.9823 31.4764C23.9977 31.5148 24.0131 31.5531 24.0285 31.5914C24.644 32.9793 26.3521 34.6816 27.6447 35.318C28.9373 35.9544 30.1837 36.2305 32.0919 36.0848C34 35.9468 36.0851 35.5097 37.7316 34.7199C39.3243 33.9531 40.4168 33.1557 41.2093 32.5039C41.2324 32.4809 41.2632 32.4656 41.2863 32.4426C41.2863 32.4426 41.2478 33.2784 41.4248 33.8764C41.6017 34.4745 41.9787 35.2643 42.5943 35.6017C43.2098 35.9391 43.4868 36.1078 44.3639 36.2305C45.241 36.3531 46.2336 36.1538 47.0876 35.9544C47.1184 35.9544 47.1491 35.9391 47.1799 35.9314C48.0263 35.7167 49.2035 35.203 50.0421 34.7659C50.9192 34.3135 52.6812 33.3014 53.8353 32.2585C53.8353 32.2585 53.9353 32.7723 54.4354 33.424C54.9278 34.0758 55.7896 35.548 58.2517 36.1691C59.9521 36.5525 61.6679 36.1385 62.6835 35.341L53.8353 48.1002C53.8353 48.1002 53.666 48.2689 53.2659 48.8133C52.8658 49.3577 52.0349 50.6843 51.7964 53.2607C51.5578 55.8371 52.1811 59.0115 53.3198 61.1892C54.4585 63.3668 56.6282 64.9387 59.1211 65.0154C61.6063 65.0921 63.2374 63.5892 64.7455 61.1968C66.2535 58.8122 67.246 53.6134 67.5153 51.106C67.7769 48.5986 67.8077 45.7615 67.7923 44.8107C67.7769 43.8599 67.7231 40.7085 67.7231 40.7085L67.2999 31.2464L67.223 29.2528C67.223 29.2528 68.4002 26.178 68.6387 22.5511C68.7695 21.2322 68.4386 19.2539 67.8539 18.0961V18.0808ZM41.2093 29.9275C40.64 30.8247 39.8552 31.6221 38.8703 32.2355C37.6316 32.9486 36.3005 33.2937 35.0156 33.2937C34.8925 33.2937 34.7694 33.2937 34.654 33.286C34.5386 33.286 34.4232 33.2707 34.3078 33.263C34.3001 33.263 34.2924 33.263 34.2847 33.263C34.2077 33.2554 34.1308 33.2477 34.0538 33.2323C33.9461 33.217 33.8461 33.2017 33.7461 33.1787C33.5768 33.148 33.4075 33.1097 33.246 33.0637C33.1767 33.0483 33.1152 33.0253 33.0459 33.01C32.8074 32.941 32.5766 32.8566 32.3535 32.7569C32.2996 32.7339 32.238 32.7109 32.1842 32.6803C32.1149 32.6419 32.038 32.6113 31.9688 32.5729C31.8995 32.5346 31.8226 32.4962 31.7533 32.4502C31.7302 32.4426 31.7072 32.4272 31.6841 32.4119C31.6379 32.3889 31.5917 32.3582 31.5456 32.3199C31.5148 32.3045 31.4917 32.2892 31.4609 32.2662C31.5071 32.2969 31.5533 32.3275 31.5917 32.3582C31.4917 32.2969 31.3917 32.2279 31.2917 32.1512C31.2609 32.1359 31.2378 32.1129 31.207 32.0898C31.1378 32.0362 31.0609 31.9825 30.9993 31.9212C30.9993 31.9212 30.9993 31.9212 30.9916 31.9212C30.9531 31.8828 30.907 31.8521 30.8685 31.8138C30.8223 31.7755 30.7839 31.7448 30.7377 31.6988C30.7223 31.6911 30.7146 31.6835 30.7069 31.6681C30.6454 31.6068 30.5838 31.5454 30.5223 31.4841C30.353 31.3001 30.1914 31.1084 30.0452 30.9013C29.9683 30.794 29.8991 30.6866 29.8298 30.5716C29.6913 30.3493 29.5759 30.1192 29.4759 29.8815C29.4374 29.7895 29.4066 29.7052 29.3682 29.6131C29.3374 29.5288 29.3143 29.4521 29.2835 29.3601C29.2681 29.2911 29.2451 29.2298 29.2297 29.1607C29.2297 29.1531 29.2297 29.1454 29.2297 29.1301C29.2143 29.0764 29.1989 29.0227 29.1912 28.969C29.1604 28.8617 29.1373 28.7544 29.122 28.6393C29.122 28.6547 29.1296 28.6777 29.1373 28.7007C29.1373 28.693 29.1373 28.6853 29.1373 28.67C29.1373 28.6317 29.122 28.601 29.122 28.5703C29.122 28.5397 29.1143 28.509 29.1066 28.4783C29.0989 28.4246 29.0912 28.371 29.0835 28.3173C28.8834 26.3313 29.7375 24.2227 31.4225 22.6891C31.5379 22.5818 31.661 22.4821 31.7841 22.3824C32.038 22.183 32.2996 21.9913 32.5843 21.815C32.6227 21.792 32.6535 21.769 32.692 21.746C35.6465 19.9747 39.2243 20.3428 41.1939 22.4744V29.9199L41.2093 29.9275ZM65.5303 37.1736C65.4764 40.1257 65.261 44.6957 64.5993 47.9392C63.9376 51.1827 63.1451 53.5597 61.714 54.8479C60.2829 56.1438 58.7441 55.8294 57.6669 55.3233C56.5821 54.8249 56.0512 53.4217 56.3666 51.6581C56.6821 49.8945 58.2748 46.0146 60.5522 42.7098C63.0451 39.0982 65.5303 33.6081 65.5303 33.6081C65.5303 33.6081 65.5841 34.2138 65.5303 37.1736ZM65.638 26.4693C64.6916 30.679 61.6986 33.5851 58.9441 32.9716C56.1974 32.3582 54.7355 28.4476 55.6819 24.2457C56.6282 20.0437 59.6212 17.13 62.3757 17.7434C65.1225 18.3568 66.5844 22.2674 65.638 26.4693Z" fill="url(#paint0_linear_202_186)"/>
<path d="M64.5377 48.2152C64.4839 48.476 64.43 48.7367 64.3685 48.9897H67.6769C67.6923 48.729 67.7077 48.4683 67.7154 48.2152H64.5377ZM67.8539 18.0884C67.2691 16.9229 66.2381 15.466 64.1838 14.7376C62.1295 14.0092 61.0292 14.3542 59.2442 15.1823C57.4592 16.0181 54.9971 18.5102 53.9507 21.4086C52.9043 24.307 52.4657 26.5384 53.1197 30.725C53.1197 30.725 52.2811 31.3997 50.7654 32.3352C49.2419 33.2707 48.7418 33.5084 48.7418 33.5084C48.7418 33.5084 48.0109 33.8918 47.4877 33.9685C47.3954 33.9838 47.2953 33.9915 47.1876 33.9838C46.6798 33.9608 46.0566 33.6234 45.9489 31.9442C45.8335 29.9275 46.0181 18.5945 46.0181 18.5945L42.0326 20.3198C42.0326 20.3198 41.7479 20.1357 41.2093 19.9134C40.7092 19.7063 39.9937 19.4686 39.0781 19.3153C37.1699 19.0009 33.9307 19.2616 31.2301 20.4501C28.5295 21.6386 26.1828 23.2335 24.3747 24.9204C22.5589 26.615 20.7739 28.3633 20.3584 28.9844L20.0583 29.3294L21.2278 30.1576L24.0285 27.5658C24.0285 27.5658 23.8284 28.417 23.7746 29.4061C23.413 29.7742 22.405 30.7863 21.7664 31.3001C20.9739 31.9365 19.7967 33.0253 18.0348 33.7308C16.0113 34.5282 14.8033 33.8764 14.4648 31.6374V30.3493L14.5109 16.8156H16.1498L22.6051 12.2072C23.0513 11.8315 23.8746 11.2257 24.2131 10.7887C24.3747 10.574 24.644 9.96055 24.644 9.25512C24.644 9.17077 24.644 9.07876 24.6286 8.98674C24.6286 8.74137 24.4055 8.58802 24.167 8.58802C24.0823 8.58802 23.9977 8.60335 23.9208 8.64169C23.6284 8.73371 23.2822 8.89473 23.0898 9.00975L14.5186 14.5229L14.5571 2.89084C14.5571 2.73748 14.5032 2.58412 14.4109 2.46911L12.5335 0.107422C12.4258 -0.0305989 12.2181 -0.0305989 12.1104 0.107422L10.2715 2.4461C10.1484 2.59946 10.0868 2.78349 10.0868 2.97518V16.3248C9.51747 15.9031 8.73268 15.9031 8.17101 16.3478L0.646216 22.1984C0.253819 22.9191 0.176878 23.1415 0.0691615 23.5862C-0.12319 24.123 0.107632 24.3377 0.36923 24.2687H0.384618C0.769322 24.2687 1.71569 23.87 1.99268 23.6859L10.0868 18.3108V33.194C10.0868 34.6202 10.8024 35.3563 11.618 35.8547C12.4412 36.3608 13.9185 36.3838 16.8038 35.6937C19.5121 35.0496 21.451 33.9148 23.9823 31.4764C23.9977 31.5148 24.0131 31.5531 24.0285 31.5914C24.644 32.9793 26.3521 34.6816 27.6447 35.318C28.9373 35.9544 30.1837 36.2305 32.0919 36.0848C34 35.9468 36.0851 35.5097 37.7316 34.7199C39.3243 33.9531 40.4168 33.1557 41.2093 32.5039C41.2324 32.4809 41.2632 32.4656 41.2863 32.4426C41.2863 32.4426 41.2478 33.2784 41.4248 33.8764C41.6017 34.4745 41.9787 35.2643 42.5943 35.6017C43.2098 35.9391 43.4868 36.1078 44.3639 36.2305C45.241 36.3531 46.2336 36.1538 47.0876 35.9544C47.1184 35.9544 47.1491 35.9391 47.1799 35.9314C48.0263 35.7167 49.2035 35.203 50.0421 34.7659C50.9192 34.3135 52.6812 33.3014 53.8353 32.2585C53.8353 32.2585 53.9353 32.7723 54.4354 33.424C54.9278 34.0758 55.7896 35.548 58.2517 36.1691C59.9521 36.5525 61.6679 36.1384 62.6835 35.341L53.9276 47.9699H57.6362C58.3671 46.3213 59.3673 44.4427 60.5522 42.7251C63.0451 39.1136 65.5303 33.6234 65.5303 33.6234C65.5303 33.6234 65.5841 34.2292 65.5303 37.1889C65.4764 40.141 65.261 44.7111 64.5993 47.9545V47.9699H67.7385C67.8 46.5667 67.8 45.3628 67.7923 44.8107C67.7769 43.8599 67.7231 40.7085 67.7231 40.7085L67.2999 31.2464L67.223 29.2528C67.223 29.2528 68.4002 26.178 68.6387 22.5511C68.7695 21.2322 68.4386 19.2539 67.8539 18.0961V18.0884ZM41.2093 29.9352C40.64 30.8323 39.8552 31.6298 38.8703 32.2432C37.6316 32.9563 36.3005 33.3014 35.0156 33.3014C34.8925 33.3014 34.7694 33.3014 34.654 33.2937C34.5386 33.2937 34.4232 33.2784 34.3078 33.2707C34.3001 33.2707 34.2924 33.2707 34.2847 33.2707C34.2077 33.263 34.1308 33.2554 34.0538 33.24C33.9461 33.2247 33.8461 33.2093 33.7461 33.1863C33.5768 33.1557 33.4075 33.1173 33.246 33.0713C33.1767 33.056 33.1152 33.033 33.0459 33.0177C32.8074 32.9486 32.5766 32.8643 32.3535 32.7646C32.2996 32.7416 32.238 32.7186 32.1842 32.6879C32.1149 32.6496 32.038 32.6189 31.9688 32.5806C31.8995 32.5422 31.8226 32.5039 31.7533 32.4579C31.7302 32.4502 31.7072 32.4349 31.6841 32.4196C31.6379 32.3966 31.5917 32.3659 31.5456 32.3275C31.5148 32.3122 31.4917 32.2969 31.4609 32.2739C31.5071 32.3045 31.5533 32.3352 31.5917 32.3659C31.4917 32.3045 31.3917 32.2355 31.2917 32.1589C31.2609 32.1435 31.2378 32.1205 31.207 32.0975C31.1378 32.0438 31.0609 31.9902 30.9993 31.9288C30.9993 31.9288 30.9993 31.9288 30.9916 31.9288C30.9531 31.8905 30.907 31.8598 30.8685 31.8215C30.8223 31.7831 30.7839 31.7525 30.7377 31.7065C30.7223 31.6988 30.7146 31.6911 30.7069 31.6758C30.6454 31.6144 30.5838 31.5531 30.5223 31.4918C30.353 31.3077 30.1914 31.116 30.0452 30.909C29.9683 30.8017 29.8991 30.6943 29.8298 30.5793C29.6913 30.3569 29.5759 30.1269 29.4759 29.8892C29.4374 29.7972 29.4066 29.7128 29.3682 29.6208C29.3374 29.5365 29.3143 29.4598 29.2835 29.3678C29.2681 29.2988 29.2451 29.2374 29.2297 29.1684C29.2297 29.1607 29.2297 29.1531 29.2297 29.1377C29.2143 29.0841 29.1989 29.0304 29.1912 28.9767C29.1604 28.8694 29.1373 28.762 29.122 28.647C29.122 28.6623 29.1296 28.6853 29.1373 28.7083C29.1373 28.7007 29.1373 28.693 29.1373 28.6777C29.1373 28.6393 29.122 28.6087 29.122 28.578C29.122 28.5473 29.1143 28.5166 29.1066 28.486C29.0989 28.4323 29.0912 28.3786 29.0835 28.325C28.8834 26.339 29.7375 24.2303 31.4225 22.6968C31.5379 22.5894 31.661 22.4898 31.7841 22.3901C32.038 22.1907 32.2996 21.999 32.5843 21.8227C32.6227 21.7996 32.6535 21.7766 32.692 21.7536C35.6465 19.9824 39.2243 20.3504 41.1939 22.4821V29.9275L41.2093 29.9352ZM65.638 26.477C64.6916 30.6866 61.6986 33.5927 58.9441 32.9793C56.1974 32.3659 54.7355 28.4553 55.6819 24.2533C56.6282 20.0514 59.6212 17.1376 62.3757 17.751C65.1225 18.3645 66.5844 22.2751 65.638 26.477ZM53.7199 48.2229C53.6276 48.3303 53.4814 48.5143 53.2659 48.8057C53.2275 48.8593 53.1813 48.9207 53.1351 48.9974H57.2053C57.3053 48.7443 57.4053 48.4913 57.5207 48.2229H53.7199ZM52.4965 50.2012C52.4581 50.2932 52.4196 50.3929 52.3888 50.4926H56.6667C56.6975 50.4006 56.7283 50.3009 56.759 50.2012H52.4965ZM52.0657 51.5661C52.0426 51.6811 52.0118 51.8038 51.9887 51.9265H56.3205C56.3359 51.8345 56.3436 51.7501 56.3589 51.6581C56.3589 51.6274 56.3743 51.5967 56.3743 51.5584H52.058L52.0657 51.5661ZM56.459 53.8971H51.7502C51.7502 54.0274 51.7425 54.1731 51.7425 54.3035H56.6282C56.559 54.1731 56.5051 54.0428 56.459 53.8971ZM57.6592 55.331C57.6592 55.331 57.6208 55.3156 57.5977 55.3003H51.7733C51.7733 55.4077 51.7887 55.515 51.7964 55.63H58.4594C58.1747 55.5533 57.9055 55.446 57.6592 55.331ZM59.6443 55.7604C59.5289 55.768 59.4058 55.768 59.2981 55.7604H51.8117C51.8271 55.8984 51.8348 56.0364 51.8502 56.1668H66.5921C66.6305 56.0287 66.6613 55.8907 66.6921 55.7604H59.6443ZM62.1064 54.4415C61.9756 54.5872 61.8448 54.7252 61.7063 54.8556C61.6909 54.8709 61.6832 54.8786 61.6679 54.8939H66.8844C66.9152 54.7482 66.946 54.5949 66.9768 54.4492H62.1064V54.4415ZM63.2759 52.5169C63.1682 52.7699 63.0528 53.0076 62.9297 53.23H67.1999C67.246 52.9846 67.2845 52.7469 67.3153 52.5169H63.2759ZM63.8222 51.0293C63.7914 51.1367 63.7606 51.244 63.7222 51.3437H67.4769C67.4846 51.2594 67.4923 51.175 67.5076 51.0907C67.5076 51.0677 67.5076 51.0447 67.5076 51.0217H63.8222V51.0293ZM64.23 49.5648C64.1992 49.7028 64.1607 49.8408 64.13 49.9712H67.6077C67.6154 49.8332 67.6308 49.6951 67.6385 49.5648H64.23ZM64.0684 50.2012C64.0376 50.3009 64.0145 50.4006 63.9838 50.4926H67.5615C67.5692 50.3929 67.5769 50.2932 67.5923 50.2012H64.0684ZM63.6452 51.5661C63.6068 51.6888 63.5606 51.8115 63.5144 51.9265H67.3999C67.4153 51.7961 67.4384 51.6811 67.4538 51.5661H63.6529H63.6452ZM62.5219 53.8971C62.4296 54.0428 62.3218 54.1731 62.2218 54.3035H66.9998C67.0306 54.1655 67.0537 54.0274 67.0768 53.8971H62.5219ZM61.1139 55.3003C60.8754 55.446 60.6292 55.5533 60.3829 55.63H66.7152C66.7382 55.5227 66.769 55.4077 66.7844 55.3003H61.1062H61.1139ZM52.1041 57.7157C52.1349 57.8537 52.158 57.9917 52.1965 58.1221H66.0458C66.0919 57.9917 66.1304 57.8537 66.1689 57.7157H52.1041ZM52.5042 59.2109C52.5427 59.3259 52.5812 59.4409 52.6196 59.5559H65.5457C65.5918 59.4409 65.638 59.3259 65.6765 59.2109H52.5042ZM53.3275 61.2045C53.466 61.4652 53.6199 61.7106 53.7814 61.956H64.2223C64.3915 61.7183 64.5608 61.4652 64.7224 61.2045H53.3198H53.3275ZM54.4431 62.7841C54.5355 62.8914 54.6432 62.9911 54.7432 63.0908H63.3144C63.4067 62.9911 63.499 62.8914 63.5837 62.7841H54.4431ZM55.805 63.9419C55.9973 64.0646 56.1897 64.1796 56.3897 64.287H61.8987C62.0679 64.1873 62.2372 64.0723 62.3988 63.9419H55.8127H55.805ZM58.521 64.9541C58.7133 64.9771 58.9134 64.9924 59.1057 65.0001C59.4289 65.0077 59.7289 65.0001 60.0213 64.9541H58.5133H58.521ZM54.9278 63.2595C55.0586 63.3822 55.1894 63.4895 55.3279 63.5969H62.8066C62.922 63.4895 63.0451 63.3822 63.1528 63.2595H54.9278ZM53.9045 62.1246C53.9738 62.232 54.0584 62.3317 54.1431 62.4314H63.8684C63.9453 62.3317 64.0222 62.2243 64.1069 62.1246H53.9045ZM52.7581 59.924C52.8504 60.1617 52.9428 60.3841 53.0428 60.6064H65.0686C65.1763 60.3917 65.2841 60.1694 65.3918 59.924H52.7581ZM52.2426 58.2831C52.3042 58.5208 52.3734 58.7585 52.4427 58.9885H65.7611C65.838 58.7585 65.9227 58.5208 65.9996 58.2831H52.2426ZM51.881 56.4045C51.9041 56.6038 51.9349 56.8109 51.9733 57.0102H66.3689C66.4228 56.8109 66.4766 56.6038 66.5305 56.4045H51.881ZM56.6975 54.4415H51.7348C51.7348 54.5872 51.7348 54.7329 51.7425 54.8862H57.036C56.9052 54.7559 56.7898 54.6025 56.6975 54.4415ZM56.2666 52.5169H51.881C51.8425 52.7393 51.8194 52.977 51.7964 53.23H56.3051C56.2743 53.0076 56.2666 52.7699 56.2666 52.5169ZM52.1965 51.0293C52.1657 51.129 52.1426 51.2364 52.1041 51.3437H56.4128C56.4359 51.244 56.459 51.1367 56.4897 51.0293H52.1888H52.1965ZM52.7812 49.5648C52.7197 49.6875 52.6504 49.8178 52.5889 49.9712H56.8283C56.8744 49.8408 56.9206 49.7028 56.9745 49.5648H52.7812Z" fill="white"/>
<path d="M66.7229 21.8532C64.7225 21.6002 62.9836 22.9037 62.5374 24.7056H63.7915C64.2224 23.5785 65.4149 22.8194 66.7537 23.0724C67.6385 23.2411 68.3771 23.8775 68.6926 24.7056H69.9237C69.562 23.2104 68.2771 22.0526 66.7229 21.8532Z" fill="#DAE024"/>
</g>
<defs>
<linearGradient id="paint0_linear_202_186" x1="34.3308" y1="65.0001" x2="34.3308" y2="7.06906e-05" gradientUnits="userSpaceOnUse">
<stop stop-color="white" stop-opacity="0"/>
<stop offset="0.04" stop-color="white" stop-opacity="0.14"/>
<stop offset="0.14" stop-color="white" stop-opacity="0.48"/>
<stop offset="0.27" stop-color="white"/>
<stop offset="1" stop-color="white" stop-opacity="0.47"/>
</linearGradient>
<clipPath id="clip0_202_186">
<rect width="101" height="65" fill="white"/>
</clipPath>
</defs>
</svg>
