<svg width="871" height="845" viewBox="0 0 871 845" fill="none" xmlns="http://www.w3.org/2000/svg">
<g filter="url(#filter0_f_296_214)">
<path d="M200.763 460.301L488.662 517.889L579.712 418.389L670.763 318.889L435.442 348.963L200.763 460.301Z" fill="#6DE126"/>
</g>
<path d="M109.302 523.645C107.853 525.52 108.141 526.965 110.595 530.758C113.416 535.139 115.634 536.593 121.591 537.988C137.977 541.894 158.148 538.182 195.23 524.459C215.34 516.982 217.032 516.228 229.159 508.706C235.974 504.438 237.206 503.845 243.344 501.807C262.705 495.409 274.131 490.259 289.995 480.921C292.586 479.381 295.024 478.156 295.433 478.101C296.04 478.055 302.142 473.866 304.241 472.09C304.592 471.782 305.013 471.656 305.176 471.878C305.311 472.062 305.094 472.555 304.625 472.965C304.195 473.342 301.366 476.485 298.384 479.944C295.401 483.403 291.005 488.524 288.606 491.29C261.435 522.589 253.164 532.314 241.417 546.839C223.777 568.644 211.677 585.842 202.385 602.583C198.278 609.937 190.648 625.709 188.723 630.788C186.533 636.646 186.027 640.423 187.563 639.806C187.786 639.672 188.795 640 189.781 640.471C190.992 640.987 192.237 641.111 193.433 640.731C199.126 638.961 212.772 628.169 235.647 607.299C259.903 585.16 283.016 563.475 284.49 561.458C285.187 560.483 287.109 557.589 288.717 554.969C291.938 549.907 292.251 549.633 297.95 546.645C303.977 543.492 313.33 536.033 322.656 526.961C333.933 516 343.337 506.071 351.049 496.896C354.718 492.534 362.601 483.33 368.488 476.48C393.386 447.596 401.161 437.456 406.267 427.349C408.775 422.365 410.09 417.941 409.76 415.562C409.595 414.373 409.027 413.597 406.257 410.687C402.089 406.393 401.26 405.785 398.438 404.557C395.83 403.445 395.472 402.606 395.852 398.394L396.075 395.895L399.447 396.823C401.359 397.333 404.418 397.746 406.321 397.718L409.756 397.682L410.116 399.488C410.75 402.632 412.843 407.771 415.322 412.21C418.71 418.156 426.976 428.138 462.23 468.696C486.64 496.8 489.689 500.618 495.055 509.441C501.439 519.918 540.392 574.031 546.804 581.393C554.79 590.468 562.239 598.195 562.386 597.52C562.384 597.341 561.245 594.821 559.824 592.003C556.97 586.438 556.139 584.074 557.193 584.727C557.954 585.153 560.664 587.63 564.303 591.114C565.793 592.538 567.064 593.486 567.113 593.202C567.194 592.524 562.414 583.977 555.249 571.818C551.443 565.389 527.716 533.05 515.665 517.894C496.718 494.102 488.69 482.517 473.901 457.572C471.332 453.273 450.573 419.731 443.597 408.62C436.744 397.765 429.986 390.281 424.225 387.139C422.584 386.211 422.383 386.024 422.66 385.175C423.364 382.983 424.113 378.75 424.331 375.893L424.557 372.785L427.118 373.393C428.563 373.704 429.934 374.262 430.204 374.632C430.474 375.001 430.817 376.521 431.054 378.071C431.579 381.855 436.244 390.685 438.257 391.772C441.097 393.287 450.088 391.117 459.226 386.695C467.526 382.705 478.961 375.727 504.526 359.232C513.391 353.474 522.728 347.484 525.292 345.906C536.818 338.789 560.21 321.165 568.198 313.506C574.144 307.877 579.466 302.007 581.294 299.073C583.095 296.102 584.193 295.324 589.519 292.965C592.144 291.82 595.108 290.438 596.13 289.908C598.291 288.743 628.165 264.294 648.106 247.386C670.055 228.842 682.845 216.617 686.059 211.197C687.217 209.274 687.602 206.997 687.037 205.612C686.749 204.955 686.731 203.879 686.906 203.241C687.119 202.57 687.174 201.855 687.012 201.633C685.308 199.305 659.56 206.261 641.488 213.894C619.4 223.224 592.693 238.597 549.483 266.899C545.809 269.326 536.421 275.421 528.641 280.473C520.861 285.524 513.568 290.452 512.434 291.444C509.347 294.147 510.856 291.916 515.143 287.436C517.014 285.436 518.634 283.533 518.733 283.143C518.833 282.752 521.082 279.693 523.749 276.328C534.585 262.661 541.426 251.945 550.093 234.962C554.164 227.033 555.623 224.908 564.964 213.58C569.85 207.727 571.537 205.038 580.757 188.724C590.118 172.164 600.22 151.623 603.658 142.127C609.12 127.161 611.255 114.745 609.977 105.375C609.536 101.881 609.302 101.298 607.289 98.6344C606.06 97.0425 604.456 95.1126 603.677 94.3994C602.361 93.1264 602.136 93.0812 600.419 93.9773C599.358 94.5423 597.702 95.8709 596.716 96.9765C590.315 103.913 562.046 137.566 554.033 147.732C548.648 154.567 533.251 175.318 525.295 186.526C508.556 210.088 489.593 233.414 465.36 260.141C444.32 283.345 432.492 296.971 422.913 309.114C419.897 312.966 417.266 316.118 417.134 316.112C416.962 316.141 416.103 315.317 415.19 314.419C414.315 313.487 413.378 312.731 413.128 312.828C412.891 312.854 411.859 316.789 410.814 321.583C409.587 327.265 408.449 331.231 407.553 332.985L406.092 335.719L403.858 335.734C402.617 335.79 400.693 336.14 399.524 336.557C396.858 337.557 391.762 340.319 390.316 341.585L389.183 342.577L389.728 340.342C390.311 338.073 390.35 338.039 396.456 332.452C402.121 327.313 402.704 326.62 403.711 324.405C408.081 314.518 394.279 305.38 382.853 310.531C381.056 311.316 378.597 312.074 377.449 312.169C373 312.486 365.957 316.529 361.36 321.462C357.866 325.186 356.537 327.137 355.015 331.016C354.266 332.884 352.793 335.689 351.734 337.222C349.645 340.324 347.614 346.223 347.472 349.621C347.29 353.842 348.42 357.401 350.904 360.621C353.59 364.029 355.508 364.897 358.48 364.054C361.032 363.336 365.28 360.466 370.322 356.054C372.511 354.138 374.417 352.712 374.525 352.86C374.66 353.045 375.517 352.901 376.424 352.653L378.12 352.078L376.355 354.047C375.369 355.153 373.739 357.307 372.708 358.876C370.825 361.736 368.729 366.845 369.162 367.436C370.027 368.618 366.546 369.119 356.24 369.228L344.572 369.316L346.335 372.865C347.306 374.804 348.087 376.485 348.062 376.627C348.011 376.733 346.376 377.74 344.398 378.804C333.435 384.762 314.697 396.919 285.504 416.953C270.136 427.494 265.011 430.828 251.444 439.187C232.8 450.594 219.72 458.041 207.059 464.394C200.4 467.737 176.364 480.712 169.164 484.892C154.999 493.046 118.156 516.381 112.859 520.533C111.319 521.759 109.678 523.195 109.302 523.645ZM380.385 342.82C380.253 343.603 379.613 343.254 379.412 342.278C379.199 341.373 379.238 341.339 379.815 341.865C380.163 342.166 380.422 342.607 380.385 342.82ZM356.79 370.505C360.529 370.445 363.555 370.464 363.438 370.566C363.321 370.669 360.576 371.737 357.306 372.963C354.074 374.154 350.936 375.385 350.425 375.651C349.77 375.982 349.253 375.889 349.073 375.38C348.868 375.013 348.253 373.733 347.64 372.633L346.615 370.619L348.281 370.617C349.218 370.584 353.051 370.564 356.79 370.505ZM415.18 316.246C416.136 317.289 416.316 317.798 415.955 318.356C415.723 318.741 414.527 320.698 413.33 322.655C412.16 324.648 411.156 326.255 411.09 326.252C410.864 326.207 413.329 315.381 413.642 315.107C413.798 314.97 414.507 315.501 415.18 316.246ZM263.148 525.455C262.928 525.768 262.459 526.179 262.171 526.31C261.816 526.439 261.957 526.194 262.505 525.715C263.052 525.236 263.301 525.139 263.148 525.455ZM564.605 261.544C564.569 261.757 564.245 262.102 563.89 262.231C563.496 262.393 563.532 262.18 563.962 261.804C564.365 261.39 564.681 261.296 564.605 261.544ZM261.617 527.219C261.506 527.68 250.288 540.651 249.985 540.674C249.826 540.631 251.897 538.03 254.567 534.845C259.155 529.374 261.765 526.544 261.617 527.219ZM567.482 259.693C567.263 260.006 566.716 260.485 566.31 260.719C565.838 260.95 566.018 260.671 566.644 260.124C567.308 259.542 567.636 259.377 567.482 259.693ZM577.246 253.147C586.048 247.565 587.056 246.926 586.983 247.353C586.935 247.638 570.786 258.074 568.781 259.102C566.292 260.431 570.786 257.286 577.246 253.147Z" fill="#DBE126"/>
<defs>
<filter id="filter0_f_296_214" x="0.762573" y="118.889" width="870" height="599" filterUnits="userSpaceOnUse" color-interpolation-filters="sRGB">
<feFlood flood-opacity="0" result="BackgroundImageFix"/>
<feBlend mode="normal" in="SourceGraphic" in2="BackgroundImageFix" result="shape"/>
<feGaussianBlur stdDeviation="100" result="effect1_foregroundBlur_296_214"/>
</filter>
</defs>
</svg>
