<svg width="192" height="41" viewBox="0 0 192 41" fill="none" xmlns="http://www.w3.org/2000/svg">
<g clip-path="url(#clip0_277_560)">
<path fill-rule="evenodd" clip-rule="evenodd" d="M179.819 0.340451V21.3025H192V18.5789H182.816V12.0617H191.42V9.33808H182.816V3.01542H191.71V0.340451H179.819ZM29.003 0.340451L23.2991 14.7853L17.4501 0.340451H14.5982L8.79758 14.7853L2.99698 0.340451H0L8.45921 21.497H9.03928L16 4.32859L22.864 21.497H23.4441L31.9517 0.340451H29.003ZM65.0151 21.3025H68.0121V0.340451H65.0151V21.3025ZM164.109 12.7912L161.837 11.4294C160.387 10.554 159.517 9.67853 158.84 8.85172C158.163 8.02491 157.825 6.95492 157.825 5.88493C157.825 4.23132 158.405 2.91815 159.565 1.84816C160.725 0.826809 162.224 0.340451 164.06 0.340451C165.994 0.340451 167.396 0.826809 168.894 1.79953V5.20403C167.396 3.74496 165.752 3.01542 164.012 3.01542C163.045 3.01542 162.224 3.2586 161.595 3.69632C160.967 4.13404 160.628 4.76631 160.628 5.44721C160.628 6.07948 160.773 6.61447 161.257 7.14947C161.74 7.68446 162.562 8.31673 163.577 8.94899L165.946 10.3108C168.508 11.8185 169.668 13.7639 169.668 16.1471C169.668 17.8493 169.088 19.2112 167.976 20.2811C166.864 21.3511 165.414 21.8861 163.625 21.8375C161.547 21.7888 159.71 21.2052 157.97 19.8921V16.0985C159.613 18.1412 161.45 19.1139 163.577 19.1139C164.495 19.1139 165.317 18.9193 165.946 18.3843C166.574 17.8493 166.912 17.2171 166.912 16.4389C166.912 15.1744 165.946 13.9585 164.109 12.7912ZM49.3051 12.548L45.9215 4.96085L42.7795 12.548H49.3051ZM44.9063 0.340451H47.0332L56.4109 21.3998H53.3656L50.5619 15.1744H41.6193L39.0091 21.3998H35.9154L44.9063 0.340451ZM76.568 0.340451H94.1148V3.01542H86.864V21.3025H83.8671V3.01542H76.568V0.340451ZM107.36 2.86951H106.441V9.48398H107.601C109.1 9.48398 110.163 9.33808 110.743 9.0949C111.275 8.85172 111.758 8.414 112.048 7.92764C112.387 7.39264 112.532 6.80902 112.532 6.12811C112.532 5.44721 112.338 4.86358 112 4.32859C111.662 3.79359 111.178 3.40451 110.502 3.20996C109.873 3.01542 108.81 2.86951 107.36 2.86951ZM103.396 21.3025V0.340451H108.713C110.84 0.340451 112.532 0.875445 113.74 1.8968C114.997 2.96679 115.625 4.37722 115.625 6.17675C115.625 7.39264 115.335 8.46263 114.707 9.33808C114.079 10.2135 113.257 10.8944 112.145 11.3321C112.822 11.7699 113.45 12.3535 114.127 13.1317C114.804 13.9098 115.625 15.223 116.785 17.1198C117.511 18.2871 118.139 19.2112 118.574 19.7948L119.686 21.3025H116.06C116.06 21.3025 115.094 19.7948 114.997 19.6489L113.498 17.3144L112.387 15.6607C111.758 14.7853 111.178 14.1044 110.695 13.5694C110.163 13.083 109.776 12.7426 109.341 12.4994C108.906 12.2562 108.181 12.159 107.166 12.159H106.393V21.3025H103.396ZM137.909 2.86951C135.492 2.86951 133.559 3.59905 132.012 5.10676C130.465 6.61447 129.692 8.51127 129.692 10.8458C129.692 13.083 130.465 14.9798 132.012 16.4875C133.559 17.9953 135.492 18.7248 137.813 18.7248C140.133 18.7248 142.115 17.9466 143.662 16.4389C145.208 14.9312 145.982 12.9858 145.982 10.7485C145.982 8.51127 145.208 6.66311 143.662 5.1554C142.115 3.59905 140.181 2.86951 137.909 2.86951ZM137.764 0C141.003 0 143.71 1.02135 145.837 3.06406C148.012 5.10676 149.076 7.68446 149.076 10.7972C149.076 13.9098 148.012 16.4389 145.837 18.4816C143.662 20.5243 140.906 21.497 137.619 21.497C134.477 21.497 131.819 20.4757 129.74 18.4816C127.662 16.4389 126.598 13.9098 126.598 10.8944C126.598 7.78173 127.662 5.1554 129.789 3.11269C131.867 1.02135 134.574 0 137.764 0ZM62.7432 33.2669H61.4864V35.8932H62.8399C63.7583 35.8932 64.3867 35.5042 64.3867 34.5801C64.3384 33.7046 63.8066 33.2669 62.7432 33.2669ZM60.2779 40.6109V32.1969H62.9366C63.7583 32.1969 64.3867 32.3915 64.8701 32.8292C65.3535 33.2669 65.5952 33.8505 65.5952 34.5801C65.5952 35.0664 65.4985 35.5042 65.2568 35.8932C65.0151 36.2823 64.6767 36.5255 64.2417 36.72C63.71 36.9146 63.2749 36.9632 62.4048 36.9632H61.4864V40.6109H60.2779ZM74.4894 37.1091L73.136 34.0937L71.8792 37.1091H74.4894ZM72.7009 32.1969H73.5227L77.293 40.6595H76.0846L74.9728 38.1791H71.3958L70.3323 40.6595H69.0755L72.7009 32.1969ZM94.1631 32.1969H101.221V33.2669H98.3202V40.6109H97.1118V33.2669H94.2115V32.1969M113.692 32.1969H114.852V40.6109H113.837L108.181 34.1423V40.6109H107.069V32.1969H108.036L113.74 38.7141L113.692 32.1969ZM121.958 32.1969H126.695V33.2669H123.118V35.8446H126.55V36.9146H123.118V39.5409H126.792V40.6109H121.909L121.958 32.1969ZM84.9305 33.2183H84.5921V35.8446H85.0272C85.6556 35.8446 86.0423 35.796 86.284 35.6987C86.7674 35.4555 87.0091 35.0178 87.0091 34.5314C87.0091 33.9964 86.719 33.5587 86.1873 33.3642C85.8973 33.2669 85.5106 33.2183 84.9305 33.2183ZM83.3353 40.6109V32.1969H85.4622C86.3323 32.1969 86.9607 32.3915 87.4924 32.8292C87.9758 33.2669 88.2175 33.8019 88.2175 34.5314C88.2175 35.0178 88.0725 35.4555 87.8308 35.796C87.5891 36.1364 87.2508 36.4282 86.8157 36.5741C87.1057 36.7687 87.3474 37.0119 87.5891 37.3037C87.8308 37.5955 88.1692 38.1305 88.6526 38.9087C88.8943 39.2977 89.1359 39.6382 89.3776 39.9786L89.8127 40.5623H88.3625C88.3625 40.5623 87.9758 39.9786 87.9275 39.93L87.2991 39.0059L86.864 38.3737C86.6224 38.0332 86.3807 37.7414 86.1873 37.5469C85.994 37.3523 85.8006 37.2064 85.6556 37.1091C85.5106 37.0119 85.1722 36.9632 84.7855 36.9632H84.4955V40.6109H83.3353Z" fill="#5C8018"/>
<path fill-rule="evenodd" clip-rule="evenodd" d="M134.622 33.5587H134.284V36.1851H134.719C135.347 36.1851 135.734 36.1364 135.976 36.0391C136.459 35.796 136.701 35.3582 136.701 34.8719C136.701 34.3369 136.411 33.8992 135.879 33.7046C135.637 33.6074 135.202 33.5587 134.622 33.5587ZM133.027 40.9027V32.5374H135.154C136.024 32.5374 136.653 32.7319 137.184 33.1696C137.668 33.6074 137.909 34.1423 137.909 34.8719C137.909 35.3582 137.764 35.796 137.523 36.1364C137.281 36.4769 136.943 36.7687 136.508 36.9146C136.798 37.1091 137.039 37.3523 137.281 37.6441C137.523 37.9359 137.861 38.4709 138.344 39.2491C138.634 39.7355 138.876 40.0759 139.07 40.3191L139.505 40.9027H138.054C138.054 40.9027 137.668 40.3191 137.619 40.2705L136.991 39.3464L136.556 38.7141C136.314 38.3737 136.073 38.0819 135.879 37.8873C135.686 37.6928 135.492 37.5469 135.347 37.4496C135.202 37.3523 134.864 37.3037 134.477 37.3037H134.187V40.9514L133.027 40.9027ZM147.48 37.4009L146.562 36.866C145.982 36.5255 145.595 36.1851 145.354 35.8446C145.112 35.5042 144.967 35.1151 144.967 34.6773C144.967 33.9964 145.208 33.4614 145.644 33.0724C146.079 32.6833 146.707 32.4401 147.432 32.4401C148.157 32.4401 148.786 32.6346 149.366 33.0237V34.3855C148.737 33.8019 148.109 33.5101 147.432 33.5101C147.045 33.5101 146.707 33.6074 146.465 33.8019C146.224 33.9964 146.079 34.2396 146.079 34.4828C146.079 34.726 146.175 34.9692 146.369 35.2123C146.562 35.4555 146.852 35.6501 147.287 35.8932L148.205 36.4282C149.221 37.0605 149.752 37.8387 149.752 38.7628C149.752 39.4437 149.511 39.9786 149.076 40.4164C148.641 40.8541 148.06 41.0486 147.335 41.0486C146.514 41.0486 145.74 40.8055 145.063 40.2705V38.7628C145.692 39.5896 146.465 39.9786 147.335 39.9786C147.722 39.9786 148.012 39.8814 148.254 39.6868C148.495 39.4923 148.641 39.2005 148.641 38.9087C148.592 38.325 148.205 37.8387 147.48 37.4009ZM46.5982 39.2005C45.8248 40.0759 44.0846 40.3677 43.6979 39.4437C43.2145 38.3737 44.133 37.6928 44.858 37.255C44.858 37.3037 46.2115 38.7628 46.5982 39.2005ZM45.1964 33.656C45.7281 33.656 46.1148 33.8992 46.2115 34.3855C46.3082 34.8232 46.0182 35.2123 45.7281 35.5042C45.5348 35.6987 45.3414 35.8446 45.0997 35.9905C44.8097 35.7473 44.6163 35.5042 44.4713 35.2123C44.3263 34.9692 44.2296 34.726 44.2296 34.4828C44.278 33.9478 44.713 33.656 45.1964 33.656ZM48 39.0059C48.5318 38.325 48.9668 37.1091 49.0635 36.6714H48.0484C47.9517 37.0119 47.6617 37.6928 47.3233 38.2764L45.8248 36.6228C46.5499 36.1851 47.3233 35.4069 47.3233 34.4828C47.3233 33.9478 47.0816 33.5101 46.6949 33.1696C46.3082 32.8292 45.7765 32.6346 45.1964 32.6346C44.568 32.6346 44.0846 32.8292 43.6979 33.1696C43.3112 33.5101 43.1179 33.9964 43.1662 34.5801C43.2145 35.261 43.5529 35.7473 44.1813 36.5255C43.9879 36.6228 43.5529 36.9146 43.4079 37.0605C42.6828 37.6441 42.2478 38.2764 42.3928 39.3464C42.4895 40.0273 43.0695 40.9514 44.4713 41.0486C45.6314 41.1459 46.5982 40.7082 47.3716 39.9786L48.2901 40.9514H49.7885L48 39.0059Z" fill="#5C8018"/>
</g>
<defs>
<clipPath id="clip0_277_560">
<rect width="192" height="41" fill="white"/>
</clipPath>
</defs>
</svg>
